<?xml version="1.0" standalone="no"?>
<!DOCTYPE svg PUBLIC "-//W3C//DTD SVG 20010904//EN"
 "http://www.w3.org/TR/2001/REC-SVG-20010904/DTD/svg10.dtd">
<svg version="1.0" xmlns="http://www.w3.org/2000/svg"
 width="512.000000pt" height="512.000000pt" viewBox="0 0 512.000000 512.000000"
 preserveAspectRatio="xMidYMid meet">
<metadata>
Created by potrace 1.11, written by Peter Selinger 2001-2013
</metadata>
<g transform="translate(0.000000,512.000000) scale(0.100000,-0.100000)"
fill="#000000" stroke="none">
<path d="M415 5110 c-183 -38 -330 -170 -391 -350 -18 -53 -19 -134 -19 -2200
0 -2066 1 -2147 19 -2200 52 -154 168 -274 322 -332 l59 -23 2155 0 2155 0 59
23 c154 58 270 178 322 332 18 53 19 134 19 2200 0 2066 -1 2147 -19 2200 -52
154 -168 274 -322 332 l-59 23 -2130 1 c-1172 1 -2148 -2 -2170 -6z m2311
-962 c-27 -212 -91 -1362 -121 -2193 -18 -489 -35 -898 -38 -901 -1 -1 -58 -9
-127 -19 -69 -9 -233 -34 -365 -55 -131 -22 -241 -38 -243 -35 -2 2 3 59 12
127 8 68 25 220 36 338 11 118 21 227 23 243 l4 27 -192 0 -192 0 -87 -312
c-48 -172 -89 -314 -91 -316 -8 -8 -735 -95 -741 -89 -3 3 76 275 175 604 305
1013 676 2262 716 2416 14 53 23 68 39 72 12 2 138 13 281 25 307 25 545 52
745 84 80 13 151 24 158 25 10 1 12 -10 8 -41z m1799 -30 c-3 -13 -30 -147
-61 -298 -30 -151 -57 -282 -60 -291 -6 -21 -52 -33 -239 -59 -82 -12 -151
-23 -153 -24 -4 -5 -61 -290 -101 -511 -49 -268 -207 -1263 -257 -1620 -20
-143 -38 -262 -39 -264 -7 -6 -775 -124 -780 -119 -3 2 53 297 125 654 183
919 347 1871 325 1892 -4 4 -82 10 -173 14 -92 3 -180 10 -197 15 l-30 9 3
155 c1 85 5 212 9 283 l6 128 81 -6 c372 -27 908 -10 1376 44 85 9 158 18 163
19 4 0 5 -9 2 -21z"/>
<path d="M2000 3588 c-17 -43 -370 -1436 -370 -1463 0 -5 226 5 278 11 41 5
42 6 42 43 0 20 11 158 25 307 49 534 74 831 80 929 3 55 8 121 11 148 l6 47
-31 0 c-23 0 -34 -6 -41 -22z"/>
</g>
</svg>
